<svg width="29" height="14" viewBox="0 0 29 14" fill="none" xmlns="http://www.w3.org/2000/svg">
<path d="M5.46199 4.64C6.51799 4.64 7.33999 4.904 7.92799 5.432C8.51599 5.96 8.80999 6.824 8.80999 8.024V14H6.12799V8.582C6.12799 7.43 5.55199 6.854 4.39999 6.854C4.12399 6.854 3.84199 6.896 3.55399 6.98C3.26599 7.064 3.04399 7.166 2.88799 7.286L2.85199 14H0.187988V1.292H2.88799V5.306C3.71599 4.862 4.57399 4.64 5.46199 4.64Z" fill="currentColor"/>
<path d="M11.0659 11.462H13.6759V14H11.0659V11.462Z" fill="currentColor"/>
<path d="M16.4111 14V0.992188H18.9687L22.5723 11.0557L26.2812 0.992188H28.5664V14H26.8437V3.41797L23.2578 13.1299H21.4736L17.9932 3.3916V14H16.4111Z" fill="currentColor"/>
</svg>
